<svg width="20" height="20" viewBox="0 0 20 20" fill="none" xmlns="http://www.w3.org/2000/svg">
<path d="M18.0837 8.0003C17.2503 4.7503 14.5837 2.2503 11.3337 1.7503C8.91699 1.33363 6.50033 2.08363 4.66699 3.66697C2.75033 5.2503 1.66699 7.66696 1.66699 10.167C1.66699 13.8337 4.00033 17.0837 7.41699 18.2503C7.66699 18.3337 7.91699 18.417 8.25033 18.417C8.75033 18.417 9.33366 18.2503 9.75033 17.917C10.417 17.417 10.8337 16.5837 10.8337 15.7503C10.8337 14.5837 11.7503 13.8337 13.0003 13.8337H14.7503C16.7503 13.8337 18.3337 12.2503 18.3337 10.2503C18.3337 9.41699 18.2503 8.75033 18.0837 8.0003ZM14.7503 12.0837H13.0003C10.8337 12.0837 9.16699 13.667 9.16699 15.667C9.16699 16.0003 9.00033 16.2503 8.75033 16.5003C8.58366 16.5837 8.33366 16.7503 7.91699 16.667C5.16699 15.7503 3.33366 13.0837 3.33366 10.167C3.33366 8.16696 4.16699 6.2503 5.75033 4.91697C6.91699 3.91697 8.41699 3.33363 10.0003 3.33363C10.3337 3.33363 10.7503 3.33363 11.0837 3.41697C13.667 3.83363 15.8337 5.83363 16.5003 8.41699C16.667 9.00033 16.7503 9.58366 16.7503 10.167C16.667 11.2503 15.8337 12.0837 14.7503 12.0837Z" fill="currentColor"/>
<path d="M7.06626 11.898C7.70809 11.5371 7.93577 10.7242 7.57479 10.0824C7.21382 9.44052 6.40089 9.21277 5.75906 9.57377C5.11723 9.93477 4.88955 10.7477 5.25053 11.3895C5.6115 12.0314 6.42443 12.259 7.06626 11.898Z" fill="currentColor"/>
<path d="M8.89634 7.73397C9.53817 7.373 9.76584 6.56007 9.40484 5.91824C9.04392 5.27641 8.23097 5.04874 7.58914 5.4097C6.94731 5.77068 6.71963 6.58361 7.0806 7.22544C7.44158 7.86727 8.25451 8.09494 8.89634 7.73397Z" fill="currentColor"/>
<path d="M13.3914 8.31991C14.0332 7.95894 14.2609 7.146 13.9 6.50418C13.539 5.86235 12.7261 5.63467 12.0842 5.99564C11.4424 6.35662 11.2147 7.16955 11.5757 7.81138C11.9367 8.45318 12.7496 8.68084 13.3914 8.31991Z" fill="currentColor"/>
</svg>
