<svg width="352" height="56" viewBox="0 0 352 56" fill="none" xmlns="http://www.w3.org/2000/svg">
<g clip-path="url(#clip0_2854_7940)">
<path d="M19.5839 21.3739C19.9682 22.5009 20.1602 23.6846 20.1519 24.8753C20.1519 24.9842 20.1519 25.0853 20.1519 25.1865C20.1513 25.8542 19.9599 26.5078 19.6 27.0703C19.2402 27.6327 18.7271 28.0806 18.1211 28.361C16.2752 29.1126 14.3442 29.6352 12.3712 29.9172C10.8511 30.1627 9.3124 30.2746 7.77277 30.2517L5.32962 35.9939C5.28422 36.0924 5.21193 36.176 5.12108 36.2352C5.03023 36.2944 4.92451 36.3267 4.8161 36.3285C4.67747 36.3278 4.54415 36.275 4.44262 36.1807L0.318833 32.7883C0.261573 32.734 0.215604 32.6689 0.183558 32.5968C0.151512 32.5247 0.134022 32.447 0.132097 32.3681C0.129282 32.2792 0.149255 32.1911 0.190112 32.1121C0.230968 32.0331 0.291352 31.9659 0.365521 31.9168L16.8373 16.6355C17.5564 15.9741 18.498 15.6074 19.475 15.6084C20.501 15.609 21.4874 16.0047 22.2294 16.7133L25.9019 20.448C25.9921 20.5546 26.0417 20.6896 26.0419 20.8293C26.0419 20.9779 25.9829 21.1203 25.8778 21.2254C25.7728 21.3305 25.6303 21.3895 25.4817 21.3895L19.5839 21.3739Z" fill="white"/>
<path d="M4.80042 36.4759C4.63406 36.4763 4.47342 36.4153 4.34913 36.3048L0.225348 32.9124C0.153614 32.8475 0.0964161 32.7683 0.0575249 32.6798C0.0186336 32.5913 -0.00106938 32.4955 -0.000293987 32.3988C-0.00292929 32.2908 0.0212789 32.1837 0.0701631 32.0873C0.119047 31.9909 0.191082 31.9081 0.279813 31.8464L16.7361 16.5806C17.4779 15.8962 18.45 15.5157 19.4593 15.5147C20.5161 15.5137 21.5318 15.9239 22.2915 16.6584L25.9718 20.3932C26.0895 20.5198 26.1536 20.6871 26.1507 20.86C26.1487 21.0403 26.0757 21.2124 25.9475 21.3391C25.8193 21.4659 25.6463 21.537 25.466 21.5369H19.755C20.1003 22.6291 20.2735 23.7683 20.2685 24.9138C20.2724 24.9837 20.2724 25.0539 20.2685 25.1239V25.225C20.2705 25.9172 20.0726 26.5953 19.6985 27.1778C19.3245 27.7602 18.7902 28.2223 18.1599 28.5085C16.3092 29.278 14.3699 29.8138 12.3866 30.1035C10.8699 30.3288 9.33661 30.4225 7.80378 30.3836L5.39175 36.048C5.34358 36.1678 5.2625 36.2716 5.15787 36.3473C5.05323 36.4231 4.92931 36.4676 4.80042 36.4759ZM19.4749 15.7559C18.5272 15.7567 17.6141 16.112 16.915 16.7518L0.427643 32.0331C0.368355 32.0735 0.320185 32.1282 0.287554 32.1921C0.254923 32.256 0.23888 32.3271 0.240907 32.3988C0.241435 32.4606 0.25486 32.5216 0.280317 32.5778C0.305775 32.6341 0.342704 32.6844 0.388742 32.7256L4.50475 36.118C4.55732 36.163 4.61951 36.1953 4.68653 36.2124C4.75356 36.2295 4.82362 36.2309 4.8913 36.2166C4.95899 36.2023 5.02248 36.1727 5.07687 36.13C5.13127 36.0872 5.17511 36.0326 5.20502 35.9702L7.67151 30.158H7.7571C9.29177 30.1882 10.8259 30.0762 12.3399 29.8234C14.3029 29.5418 16.2237 29.0191 18.0588 28.2673C18.6448 27.9997 19.1413 27.5691 19.489 27.0268C19.8367 26.4846 20.0209 25.8536 20.0195 25.2094V25.0927C20.0236 25.028 20.0236 24.963 20.0195 24.8982C20.0265 23.7209 19.8372 22.5508 19.4593 21.4358L19.4048 21.2724L25.4583 21.3191C25.5745 21.3191 25.6862 21.2734 25.7691 21.1919C25.8521 21.1104 25.8997 20.9996 25.9018 20.8833C25.9034 20.8276 25.894 20.772 25.8739 20.7199C25.8539 20.6678 25.8237 20.6202 25.785 20.5799L22.1203 16.8529C21.4128 16.1601 20.4651 15.7671 19.4749 15.7559Z" fill="white"/>
<path d="M47.2363 52.4968C47.4864 52.2166 47.6224 51.853 47.6176 51.4775C47.6176 51.0648 47.4537 50.6689 47.1618 50.3771C46.87 50.0853 46.4742 49.9213 46.0615 49.9213C45.6857 49.918 45.3232 50.0602 45.05 50.3181C44.5307 50.8421 43.9125 51.2578 43.2313 51.5409C42.5501 51.8241 41.8195 51.9691 41.0818 51.9677C40.3447 51.9865 39.6115 51.854 38.9277 51.5784C38.2438 51.3027 37.6238 50.8896 37.1058 50.3648C36.8186 50.0839 36.4338 49.925 36.0321 49.9213C35.8205 49.9161 35.6104 49.9588 35.4177 50.0464C35.225 50.134 35.0546 50.2642 34.9195 50.4271C34.4382 50.9336 33.8589 51.3369 33.2168 51.6124C32.5748 51.888 31.8834 52.03 31.1847 52.0299C30.4932 52.0415 29.8069 51.9091 29.1693 51.6412C28.5317 51.3733 27.9568 50.9758 27.4811 50.4738C27.3357 50.3015 27.1547 50.1629 26.9505 50.0676C26.7463 49.9722 26.5238 49.9223 26.2984 49.9213C26.0902 49.919 25.8837 49.96 25.6922 50.0417C25.5006 50.1234 25.3282 50.244 25.1858 50.396C24.6665 50.9189 24.048 51.3328 23.3666 51.6134C22.6851 51.894 21.9545 52.0356 21.2176 52.0299C20.4766 52.0284 19.7433 51.8805 19.0596 51.5948C18.376 51.309 17.7555 50.8911 17.2339 50.3648C16.9447 50.0821 16.5568 49.923 16.1523 49.9213C15.7396 49.9213 15.3438 50.0853 15.052 50.3771C14.7601 50.6689 14.5962 51.0648 14.5962 51.4775C14.609 51.8628 14.7454 52.2338 14.9852 52.5357C15.7033 53.3585 16.5895 54.0177 17.5842 54.4687C18.5788 54.9197 19.6586 55.152 20.7507 55.15C22.3421 55.1686 23.9009 54.6988 25.2169 53.8039C25.4855 53.5876 25.8213 53.472 26.1661 53.4771C26.538 53.4793 26.8969 53.6145 27.1776 53.8584C28.3056 54.6886 29.6674 55.1407 31.068 55.15C32.5239 55.1537 33.9394 54.6718 35.0906 53.7806C35.3561 53.5632 35.689 53.4449 36.0321 53.446C36.3719 53.4425 36.7023 53.5582 36.9658 53.7728C38.2528 54.6708 39.7848 55.1515 41.3541 55.15C42.4545 55.138 43.5401 54.8957 44.5411 54.4387C45.5422 53.9817 46.4364 53.3202 47.1663 52.4968" fill="white"/>
<path d="M31.1461 55.2825C29.7148 55.2695 28.3239 54.8067 27.1701 53.9598C26.9135 53.7296 26.5811 53.6022 26.2364 53.6018C25.9193 53.5972 25.6106 53.7046 25.365 53.9053C24.025 54.8136 22.4398 55.2914 20.821 55.2747C19.7124 55.2766 18.6161 55.0416 17.6056 54.5853C16.5952 54.1291 15.6939 53.4622 14.9622 52.6292C14.7002 52.3045 14.5526 51.9025 14.542 51.4855C14.5411 51.1596 14.6371 50.8409 14.8179 50.5698C14.9988 50.2987 15.2562 50.0875 15.5574 49.9632C15.8586 49.8389 16.19 49.807 16.5094 49.8716C16.8287 49.9363 17.1217 50.0945 17.3508 50.3262C18.384 51.3577 19.7813 51.9417 21.2412 51.9523C21.9634 51.9601 22.6798 51.823 23.348 51.549C24.0162 51.275 24.6227 50.8698 25.1316 50.3573C25.2923 50.1883 25.487 50.0553 25.7029 49.9671C25.9188 49.8788 26.151 49.8374 26.3841 49.8455C26.6171 49.8536 26.8459 49.911 27.0551 50.014C27.2644 50.117 27.4494 50.2631 27.5981 50.4429C28.0656 50.9294 28.6278 51.315 29.25 51.576C29.8723 51.8369 30.5414 51.9677 31.2161 51.9601C31.8978 51.9601 32.5725 51.8222 33.1996 51.5548C33.8267 51.2873 34.3933 50.8959 34.8653 50.404C35.0094 50.2263 35.1923 50.0841 35.4001 49.9883C35.6078 49.8925 35.8348 49.8457 36.0635 49.8515C36.4984 49.8532 36.9151 50.0266 37.2228 50.3339C37.7185 50.8332 38.3092 51.2282 38.96 51.4954C39.6108 51.7627 40.3085 51.8969 41.012 51.8901H41.1132C42.573 51.8866 43.972 51.3047 45.0036 50.2717C45.2959 49.9899 45.6868 49.8335 46.0929 49.836C46.4108 49.8364 46.7218 49.9288 46.9885 50.1019C47.2551 50.2749 47.4661 50.5214 47.596 50.8116C47.7259 51.1018 47.7691 51.4233 47.7206 51.7375C47.672 52.0517 47.5337 52.3452 47.3222 52.5826C46.5817 53.4178 45.6742 54.0883 44.6582 54.5507C43.6423 55.0131 42.5406 55.2571 41.4244 55.2669C39.8307 55.2702 38.2745 54.7841 36.9661 53.8742C36.7245 53.6701 36.4186 53.5582 36.1024 53.5582C35.7862 53.5582 35.4803 53.6701 35.2387 53.8742C34.0668 54.7814 32.6281 55.2765 31.1461 55.2825ZM26.2364 53.3606C26.6373 53.3625 27.0241 53.5089 27.3257 53.773C28.4533 54.6113 29.8242 55.0575 31.2292 55.0434C32.6342 55.0294 33.9959 54.5559 35.1065 53.6952C35.3878 53.4562 35.7449 53.3249 36.1141 53.3249C36.4832 53.3249 36.8404 53.4562 37.1217 53.6952C38.3896 54.5748 39.8968 55.0446 41.44 55.0413C42.5227 55.0322 43.5914 54.7955 44.5767 54.3464C45.562 53.8974 46.4417 53.246 47.1588 52.4347C47.336 52.2317 47.4512 51.9821 47.4908 51.7155C47.5303 51.4489 47.4926 51.1766 47.382 50.9309C47.2714 50.6851 47.0926 50.4762 46.8669 50.3291C46.6411 50.1819 46.3779 50.1026 46.1084 50.1005C45.7644 50.0996 45.4331 50.2305 45.1825 50.4662C44.6511 51.0005 44.0195 51.4247 43.3239 51.7144C42.6283 52.0041 41.8823 52.1537 41.1288 52.1546H41.0276C40.2914 52.1582 39.562 52.0149 38.8819 51.733C38.2018 51.4511 37.5849 51.0363 37.0672 50.5129C36.8036 50.2528 36.4494 50.105 36.0791 50.1005C35.8847 50.095 35.6918 50.1342 35.515 50.2152C35.3383 50.2961 35.1825 50.4166 35.0598 50.5674C34.5672 51.0879 33.9737 51.5027 33.3156 51.7863C32.6574 52.0699 31.9483 52.2164 31.2317 52.2169C30.5232 52.226 29.8203 52.0891 29.1671 51.8147C28.5138 51.5403 27.9241 51.1342 27.4347 50.6218C27.3035 50.4592 27.1376 50.3279 26.9491 50.2377C26.7606 50.1475 26.5543 50.1006 26.3454 50.1005C26.154 50.0995 25.9645 50.1385 25.789 50.2149C25.6135 50.2912 25.4558 50.4033 25.3261 50.544C24.2468 51.6202 22.7848 52.2245 21.2607 52.2245C19.7365 52.2245 18.2745 51.6202 17.1952 50.544C16.9278 50.2848 16.5717 50.1373 16.1993 50.1316C15.8271 50.1316 15.4701 50.2789 15.2062 50.5414C14.9423 50.8038 14.793 51.16 14.791 51.5322C14.8027 51.8901 14.9311 52.2344 15.1567 52.5125C15.8628 53.3221 16.7348 53.9704 17.7134 54.4134C18.6921 54.8564 19.7546 55.0838 20.8288 55.0802C22.3948 55.0978 23.9287 54.6363 25.2249 53.7574C25.5038 53.5125 25.8578 53.3698 26.2287 53.3529L26.2364 53.3606Z" fill="white"/>
<path d="M43.2372 9.81115C43.2372 9.5759 43.1438 9.35028 42.9774 9.18394C42.8111 9.01759 42.5855 8.92414 42.3502 8.92414H19.9261C19.8111 8.92104 19.6965 8.94078 19.5891 8.98221C19.4816 9.02364 19.3835 9.08595 19.3003 9.16554C19.2171 9.24512 19.1505 9.3404 19.1043 9.44587C19.0582 9.55134 19.0334 9.66491 19.0314 9.78003V11.7096C19.0353 11.9485 19.1314 12.1766 19.2996 12.3463C19.4678 12.5159 19.6951 12.614 19.9339 12.62H29.7532L27.9481 37.7984C26.3415 37.3545 24.847 36.576 23.5624 35.514C22.2778 34.452 21.2322 33.1305 20.4941 31.6361H11.5852C11.4697 31.6391 11.356 31.6649 11.2505 31.7119C11.1449 31.7589 11.0497 31.8262 10.9702 31.91C10.8908 31.9938 10.8286 32.0925 10.7872 32.2004C10.7459 32.3082 10.7262 32.4232 10.7293 32.5387V34.8729C10.7354 35.1123 10.8348 35.3399 11.0063 35.5071C11.1779 35.6742 11.4079 35.7677 11.6474 35.7677H13.9817C15.0622 39.4797 17.3192 42.7404 20.4131 45.0588C23.5069 47.3773 27.2701 48.628 31.1363 48.6227C35.0024 48.6174 38.7622 47.3565 41.8497 45.0296C44.9373 42.7028 47.1854 39.436 48.2558 35.721H50.4966C50.7313 35.721 50.9565 35.6289 51.1239 35.4644C51.2913 35.3 51.3873 35.0764 51.3914 34.8418V32.5075C51.3945 32.3924 51.3748 32.2779 51.3334 32.1705C51.2919 32.063 51.2296 31.9649 51.15 31.8817C51.0704 31.7985 50.9752 31.7319 50.8697 31.6857C50.7642 31.6396 50.6506 31.6148 50.5355 31.6128H41.79C41.0642 33.1366 40.014 34.4833 38.7129 35.5585C37.4119 36.6338 35.8915 37.4115 34.2582 37.8373L32.5231 12.6122H42.3191C42.4335 12.6164 42.5477 12.5979 42.655 12.5579C42.7623 12.5179 42.8607 12.4572 42.9446 12.3791C43.0284 12.3011 43.096 12.2073 43.1436 12.1031C43.1911 11.9989 43.2176 11.8864 43.2217 11.7719L43.2372 9.81115Z" fill="white"/>
<path d="M31.0996 48.7383C27.2305 48.7253 23.4682 47.4678 20.3688 45.1516C17.2694 42.8355 14.9974 39.5837 13.8886 35.8768H11.6244C11.3519 35.8769 11.0902 35.7702 10.8953 35.5797C10.7005 35.3892 10.5879 35.13 10.5818 34.8575V32.5233C10.5787 32.3925 10.6014 32.2624 10.6486 32.1404C10.6958 32.0183 10.7666 31.9068 10.8569 31.8122C10.9473 31.7175 11.0553 31.6416 11.175 31.5887C11.2947 31.5358 11.4236 31.5071 11.5544 31.504H20.5412V31.5663C21.2596 33.0233 22.2743 34.3143 23.5203 35.3567C24.7663 36.3991 26.2162 37.1699 27.7772 37.6197L29.559 12.7214H19.9343C19.6631 12.7153 19.4051 12.6038 19.2148 12.4106C19.0245 12.2174 18.9169 11.9577 18.915 11.6865V9.76467C18.917 9.63388 18.9448 9.50476 18.9967 9.3847C19.0487 9.26465 19.1237 9.156 19.2177 9.06496C19.3116 8.97392 19.4225 8.90228 19.5441 8.85413C19.6658 8.80597 19.7957 8.78224 19.9265 8.7843H42.3505C42.6167 8.7843 42.872 8.89004 43.0603 9.07828C43.2485 9.26651 43.3543 9.52181 43.3543 9.78801V11.7565C43.3513 11.8877 43.3222 12.0169 43.2687 12.1367C43.2153 12.2564 43.1385 12.3644 43.0429 12.4542C42.9473 12.544 42.8348 12.6139 42.7119 12.6597C42.589 12.7056 42.4583 12.7265 42.3272 12.7214H32.6558L34.3753 37.6664C35.9578 37.2273 37.4283 36.4552 38.6883 35.4019C39.9483 34.3485 40.9688 33.0381 41.6814 31.5585V31.4885H50.5203C50.6511 31.4894 50.7803 31.5166 50.9004 31.5682C51.0205 31.6199 51.1291 31.6951 51.2197 31.7893C51.3103 31.8836 51.3812 31.995 51.4281 32.117C51.475 32.2391 51.497 32.3693 51.4929 32.5V34.8342C51.4908 35.1011 51.3834 35.3564 51.1939 35.5444C51.0044 35.7324 50.7483 35.8379 50.4814 35.8379H48.3417C47.235 39.5552 44.9604 42.8172 41.8549 45.1407C38.7494 47.4642 34.9781 48.7257 31.0996 48.7383ZM11.5855 31.753C11.3874 31.7649 11.2013 31.8521 11.0653 31.9968C10.9293 32.1414 10.8538 32.3326 10.8541 32.5311V34.8653C10.8541 35.0717 10.9361 35.2696 11.082 35.4155C11.228 35.5614 11.4259 35.6434 11.6322 35.6434H14.0754V35.729C15.1484 39.4164 17.39 42.6556 20.463 44.959C23.5359 47.2625 27.2738 48.5056 31.1142 48.5012C34.9546 48.4968 38.6897 47.2452 41.7574 44.9347C44.825 42.6243 47.0593 39.38 48.1238 35.6901V35.6045H50.4581C50.6644 35.6045 50.8623 35.5225 51.0082 35.3766C51.1542 35.2307 51.2361 35.0328 51.2361 34.8264V32.4922C51.2365 32.2937 51.161 32.1025 51.025 31.9579C50.889 31.8132 50.7029 31.726 50.5047 31.7141H41.8604C41.1213 33.2343 40.0632 34.5773 38.758 35.6515C37.4529 36.7257 35.9315 37.5058 34.2975 37.9387L34.1497 37.9776V37.8298L32.399 12.4879H42.3194C42.5167 12.4884 42.7068 12.4139 42.8512 12.2796C42.9957 12.1453 43.0837 11.9611 43.0975 11.7643V9.78801C43.0975 9.58165 43.0155 9.38375 42.8696 9.23783C42.7237 9.09191 42.5258 9.00994 42.3194 9.00994H19.9265C19.7267 9.00969 19.5345 9.0863 19.3896 9.2239C19.2448 9.36151 19.1584 9.54956 19.1484 9.74911V11.7099C19.1484 11.9162 19.2304 12.1141 19.3763 12.26C19.5222 12.406 19.7201 12.4879 19.9265 12.4879H29.878V12.6202L28.034 37.9387L27.8939 37.8998C26.2834 37.4567 24.7837 36.6807 23.4917 35.6219C22.1997 34.5632 21.1442 33.2451 20.3933 31.753H11.5855Z" fill="white"/>
<path d="M36.5927 7.25904C36.672 7.26007 36.7507 7.24534 36.8243 7.21569C36.8979 7.18604 36.9649 7.14208 37.0213 7.08634C37.0778 7.0306 37.1226 6.9642 37.1532 6.891C37.1838 6.8178 37.1996 6.73925 37.1995 6.65992C37.2001 6.57158 37.1817 6.48415 37.1454 6.40359C37.1092 6.32303 37.056 6.25123 36.9895 6.19308L33.7371 3.72659L37.0128 1.17451C37.1232 1.05262 37.1867 0.895401 37.1918 0.731006C37.1908 0.651305 37.174 0.572583 37.1426 0.499339C37.1112 0.426095 37.0656 0.359766 37.0085 0.304132C36.9514 0.248498 36.884 0.204655 36.8099 0.175102C36.7359 0.145549 36.6568 0.130858 36.5771 0.131886H28.4229C28.189 0.138006 27.967 0.236295 27.8052 0.405345C27.6435 0.574394 27.555 0.800514 27.5592 1.03445V6.41872C27.5592 6.53448 27.5823 6.64908 27.627 6.75584C27.6718 6.86259 27.7374 6.95936 27.8199 7.04049C27.9025 7.12162 28.0004 7.18548 28.108 7.22835C28.2155 7.27121 28.3305 7.29223 28.4462 7.29017L36.5927 7.25904Z" fill="white"/>
<path d="M28.4153 7.40746C28.2835 7.40848 28.1528 7.38353 28.0306 7.33404C27.9084 7.28454 27.7972 7.21146 27.7033 7.11898C27.6094 7.0265 27.5346 6.91643 27.4832 6.79504C27.4318 6.67365 27.4048 6.54334 27.4038 6.41152V1.02726C27.4099 0.76171 27.5203 0.509217 27.711 0.324329C27.9017 0.13944 28.1575 0.036991 28.4231 0.0391048H36.5928C36.6879 0.0380775 36.7822 0.0557824 36.8704 0.0912011C36.9585 0.12662 37.0389 0.179059 37.1068 0.245531C37.1747 0.312003 37.2289 0.391196 37.2662 0.478599C37.3035 0.566003 37.3232 0.659903 37.3242 0.754931C37.3216 0.948806 37.2467 1.13471 37.1142 1.27624L33.9474 3.75052L37.0597 6.08474C37.172 6.18216 37.2519 6.31149 37.2889 6.4555C37.3258 6.59951 37.3179 6.75135 37.2664 6.89079C37.2148 7.03024 37.122 7.15066 37.0003 7.23602C36.8786 7.32137 36.7337 7.3676 36.5851 7.36855L28.4153 7.40746ZM28.4153 0.241399C28.2089 0.241399 28.011 0.323374 27.8651 0.469291C27.7192 0.615208 27.6372 0.813115 27.6372 1.01947V6.40374C27.6372 6.61009 27.7192 6.808 27.8651 6.95392C28.011 7.09983 28.2089 7.18181 28.4153 7.18181H36.5851C36.713 7.18181 36.8357 7.131 36.9262 7.04053C37.0166 6.95006 37.0675 6.82735 37.0675 6.69941C37.0697 6.62893 37.0562 6.55884 37.0279 6.49424C36.9997 6.42964 36.9573 6.37214 36.9041 6.32594L33.5272 3.76607L36.9274 1.11285C37.0115 1.01854 37.0586 0.896874 37.0597 0.770495C37.0587 0.707143 37.0452 0.644613 37.02 0.586472C36.9948 0.528331 36.9584 0.475718 36.9129 0.431644C36.8674 0.387569 36.8136 0.352896 36.7547 0.3296C36.6958 0.306304 36.6329 0.29484 36.5695 0.29587L28.4153 0.241399Z" fill="white"/>
<path d="M42.1014 21.3194C41.7171 22.4464 41.5251 23.63 41.5334 24.8207C41.5334 24.9219 41.5334 25.023 41.5334 25.1242C41.5321 25.7923 41.7228 26.4467 42.0828 27.0095C42.4428 27.5723 42.957 28.0198 43.5642 28.2987C45.4065 29.0529 47.3353 29.5756 49.3064 29.8549C50.8284 30.1063 52.37 30.2208 53.9125 30.1972L56.3557 35.9316C56.3995 36.0312 56.4715 36.1159 56.5627 36.1753C56.6538 36.2348 56.7604 36.2663 56.8692 36.2662C57.0063 36.2648 57.1385 36.2152 57.2427 36.1261L61.3665 32.7259C61.4242 32.6737 61.4706 32.6101 61.5027 32.5392C61.5348 32.4682 61.552 32.3914 61.5532 32.3136C61.556 32.2247 61.5361 32.1365 61.4952 32.0576C61.4544 31.9786 61.394 31.9113 61.3198 31.8623L44.8636 16.612C44.1445 15.9506 43.2029 15.584 42.2259 15.585C41.1991 15.5815 40.2113 15.9778 39.4715 16.6898L35.8146 20.4246C35.7209 20.5261 35.6707 20.6601 35.6745 20.7981C35.6745 20.9466 35.7335 21.0891 35.8386 21.1942C35.9437 21.2993 36.0861 21.3583 36.2347 21.3583L42.1014 21.3194Z" fill="white"/>
<path d="M56.885 36.4212C56.7544 36.4205 56.6267 36.3829 56.5165 36.3127C56.4064 36.2425 56.3183 36.1425 56.2626 36.0244L53.8505 30.3445C52.329 30.3672 50.8084 30.2552 49.3066 30.0099C47.324 29.7131 45.3852 29.1748 43.5333 28.4071C42.9024 28.1217 42.3676 27.6598 41.9934 27.0772C41.6193 26.4945 41.4218 25.8161 41.4247 25.1236V24.8202C41.4198 23.6722 41.593 22.5304 41.9383 21.4356L36.2272 21.4822C36.0456 21.4822 35.8714 21.4101 35.743 21.2817C35.6146 21.1533 35.5425 20.9791 35.5425 20.7975C35.5416 20.6273 35.6056 20.4632 35.7215 20.3385L39.394 16.6037C40.1565 15.8687 41.1748 15.4586 42.2339 15.46C43.2424 15.4582 44.2145 15.8359 44.9572 16.5181L61.429 31.7995C61.5153 31.8608 61.5847 31.9428 61.6309 32.038C61.6772 32.1332 61.6987 32.2385 61.6935 32.3441C61.6927 32.4394 61.6723 32.5335 61.6335 32.6206C61.5946 32.7076 61.5383 32.7857 61.4679 32.8499L57.3441 36.2501C57.217 36.3612 57.0538 36.422 56.885 36.4212ZM54.0062 30.1033L56.4804 35.9155C56.5166 35.9929 56.5736 36.0586 56.6451 36.1053C56.7166 36.1521 56.7997 36.1779 56.885 36.18C56.9949 36.1805 57.1008 36.1388 57.1807 36.0633L61.3045 32.6631C61.3485 32.6225 61.3837 32.5731 61.4078 32.5183C61.4319 32.4634 61.4444 32.4041 61.4445 32.3441C61.4478 32.2761 61.4338 32.2083 61.4039 32.1471C61.374 32.0859 61.3291 32.0332 61.2734 31.994L44.786 16.6971C44.0885 16.0547 43.1744 15.699 42.2261 15.7012C41.2311 15.7001 40.2744 16.085 39.5573 16.7749L35.8848 20.5019C35.8275 20.5659 35.7901 20.6453 35.777 20.7302C35.764 20.8152 35.7759 20.9021 35.8114 20.9804C35.8468 21.0588 35.9042 21.1251 35.9767 21.1713C36.0491 21.2176 36.1335 21.2418 36.2194 21.241L42.2728 21.1944L42.2184 21.3577C41.8367 22.4718 41.6473 23.6426 41.6581 24.8202V25.1236C41.6553 25.7691 41.8387 26.4017 42.1865 26.9455C42.5343 27.4893 43.0317 27.9212 43.6189 28.1892C45.454 28.9411 47.3747 29.4637 49.3377 29.7454C50.8522 29.9943 52.386 30.1063 53.9206 30.08L54.0062 30.1033Z" fill="white"/>
<path d="M334.758 36.2274H321.305L328.144 16.5422L334.758 36.2274ZM351.782 54.6911L332.019 0.583928H323.74L304.055 54.6911H315.072L318.34 45.1208H337.567L340.764 54.6911H351.782ZM289.388 27.6375C289.388 38.0481 288.774 40.5613 286.727 42.8411C285.874 43.7819 284.827 44.527 283.659 45.0252C282.49 45.5235 281.228 45.7631 279.958 45.7277C278.679 45.7599 277.408 45.5183 276.229 45.0191C275.051 44.5199 273.993 43.7747 273.127 42.8333C271.072 40.5535 270.543 38.0404 270.543 27.6298C270.543 17.2191 271.072 14.706 273.127 12.4262C273.995 11.4852 275.054 10.7408 276.234 10.243C277.414 9.7451 278.686 9.50527 279.966 9.53956C281.236 9.50414 282.498 9.74376 283.666 10.242C284.835 10.7403 285.882 11.4854 286.735 12.4262C288.781 14.706 289.396 17.2191 289.396 27.6298M299.955 27.6298C299.955 18.2929 300.032 11.5159 294.562 6.046C290.642 2.24102 285.394 0.112817 279.931 0.112817C274.468 0.112817 269.219 2.24102 265.299 6.046C259.853 11.4925 259.977 18.2851 259.977 27.6298C259.977 36.9744 259.829 43.7436 265.299 49.2135C269.219 53.0185 274.468 55.1467 279.931 55.1467C285.394 55.1467 290.642 53.0185 294.562 49.2135C300.009 43.767 299.955 36.9744 299.955 27.6298ZM239.669 16.2388C239.669 19.958 237.164 22.4633 232.667 22.4633H222.35V10.0142H232.667C237.148 10.0142 239.669 12.5196 239.669 16.2388ZM240.447 38.585C240.447 42.2264 238.168 45.2687 233.383 45.2687H222.35V31.9403H233.375C238.16 31.9403 240.44 34.9047 240.44 38.5539M251.006 39.083C251.006 31.8625 246.828 28.4389 243.56 26.9217C245.591 25.8514 247.289 24.2429 248.468 22.2723C249.647 20.3017 250.261 18.0448 250.243 15.7486C250.243 6.48173 244.089 0.55281 233.523 0.55281H211.791V54.66H234.433C244.089 54.66 251.006 49.2135 251.006 39.0985M201.832 38.7173C201.832 33.9321 200.54 29.9795 197.653 27.2407C195.374 25.1166 192.254 23.7472 187.313 23.0625L180.933 22.1521C179.085 21.9566 177.338 21.2143 175.914 20.0202C175.394 19.5171 174.983 18.9117 174.709 18.2421C174.434 17.5725 174.302 16.8533 174.319 16.1298C174.319 12.4029 177.058 9.29057 182.683 9.29057C186.255 9.29057 190.355 9.74962 193.779 13.0175L200.462 6.40391C195.794 1.91443 190.433 0.09375 182.987 0.09375C171.316 0.09375 164.134 6.8552 164.134 16.5111C164.134 21.0706 165.426 24.5641 168.024 27.1473C170.46 29.4816 173.876 30.9521 178.513 31.6368L185.049 32.5472C187.562 32.9284 188.776 33.4575 189.842 34.4457C190.421 35.0487 190.868 35.7653 191.156 36.55C191.444 37.3348 191.566 38.1708 191.514 39.0052C191.514 43.339 188.169 45.6966 181.936 45.6966C176.918 45.6966 172.281 44.5528 168.865 41.1371L162.026 47.9764C167.34 53.3762 173.572 55.1191 181.781 55.1191C193.11 55.1191 201.847 49.1901 201.847 38.7017M154.268 0.576151H143.694V54.6833H154.253L154.268 0.576151ZM135.12 54.6833V45.2687H110.556V0.583928H99.9897V54.6911L135.12 54.6833Z" fill="white"/>
<path d="M77.0525 0.116211H76.2744V55.1415H77.0525V0.116211Z" fill="white"/>
</g>
<defs>
<clipPath id="clip0_2854_7940">
<rect width="351.782" height="55.2665" fill="white"/>
</clipPath>
</defs>
</svg>
