<svg width="20" height="20" viewBox="0 0 20 20" fill="none" xmlns="http://www.w3.org/2000/svg">
<path d="M13.695 7.41842C9.70607 3.97143 3.87436 9.28283 7.23464 13.5753C6.88777 9.93321 10.0963 6.89812 13.695 7.41842ZM3.61421 9.88985C2.2701 9.02268 1.44629 7.5485 1.44629 5.94423C1.44629 3.36441 3.52749 1.2832 6.10732 1.2832C7.7983 1.2832 9.33752 2.19373 10.1613 3.64624C11.1803 4.03646 12.0474 4.7302 12.6111 5.6624C13.8034 6.09599 14.8007 6.9198 15.4511 7.98208C17.3588 8.95764 18.5512 10.9088 18.5512 13.055C18.5512 16.1768 16.0147 18.7133 12.8712 18.7133C10.6383 18.7133 8.62211 17.4125 7.71158 15.3747C6.67098 14.6593 5.89053 13.6404 5.52198 12.448C4.63313 11.8193 3.96108 10.9305 3.61421 9.88985ZM8.66547 3.32105C7.99341 2.64899 7.08288 2.28045 6.10732 2.28045C4.09115 2.28045 2.44353 3.92807 2.44353 5.94423C2.44353 6.85476 2.76872 7.70025 3.37574 8.39399C3.35406 5.46729 5.76045 3.14762 8.66547 3.32105ZM11.0719 5.3589C7.45143 2.06365 2.11834 7.07155 5.28351 10.8871C5.28351 7.70025 7.88502 5.16378 11.0719 5.3589ZM12.8712 8.37231C10.2914 8.37231 8.2102 10.4535 8.2102 13.055C8.2102 15.6348 10.2914 17.716 12.8712 17.716C15.4727 17.716 17.5539 15.6348 17.5539 13.055C17.5539 10.4535 15.4727 8.37231 12.8712 8.37231Z" fill="currentColor" stroke="currentColor" strokeWidth="0.378867"/>
</svg>
