<svg width="20" height="20" viewBox="0 0 20 20" fill="none" xmlns="http://www.w3.org/2000/svg">
<path d="M10 13.332C11.3807 13.332 12.5 12.2127 12.5 10.832C12.5 9.4513 11.3807 8.33203 10 8.33203C8.61925 8.33203 7.5 9.4513 7.5 10.832C7.5 12.2127 8.61925 13.332 10 13.332Z" stroke="currentColor" strokeWidth="1.66667" strokeLinecap="round" stroke-linejoin="round"/>
<path d="M2.5 8.80388C2.5 8.32522 2.5 8.0859 2.56169 7.86551C2.61633 7.67028 2.70614 7.48667 2.82669 7.32368C2.96278 7.13968 3.15168 6.99276 3.52949 6.6989L9.18142 2.30297C9.47417 2.07526 9.62058 1.9614 9.78225 1.91763C9.92483 1.87902 10.0752 1.87902 10.2177 1.91763C10.3794 1.9614 10.5258 2.07526 10.8186 2.30297L16.4705 6.69891C16.8483 6.99276 17.0372 7.13968 17.1733 7.32368C17.2938 7.48667 17.3837 7.67028 17.4383 7.86551C17.5 8.0859 17.5 8.32522 17.5 8.80388V14.833C17.5 15.7664 17.5 16.2331 17.3183 16.5896C17.1586 16.9032 16.9036 17.1582 16.59 17.318C16.2335 17.4996 15.7667 17.4996 14.8333 17.4996H5.16667C4.23324 17.4996 3.76653 17.4996 3.41002 17.318C3.09641 17.1582 2.84144 16.9032 2.68166 16.5896C2.5 16.2331 2.5 15.7664 2.5 14.833V8.80388Z" stroke="currentColor" strokeWidth="1.66667" strokeLinecap="round" stroke-linejoin="round"/>
</svg>
