<svg width="218" height="226" viewBox="0 0 218 226" fill="none" xmlns="http://www.w3.org/2000/svg">
<path d="M84.4326 45.7638C85.2568 48.1813 85.6687 50.7202 85.651 53.2743C85.651 53.5079 85.651 53.7249 85.651 53.9419C85.6497 55.3741 85.239 56.7762 84.4672 57.9827C83.6954 59.1892 82.5947 60.1498 81.2949 60.7514C77.3353 62.3636 73.1932 63.4846 68.961 64.0894C65.7003 64.616 62.3997 64.8561 59.0972 64.8071L53.8565 77.1243C53.7591 77.3355 53.604 77.5149 53.4092 77.6419C53.2143 77.7688 52.9875 77.8382 52.755 77.842C52.4576 77.8405 52.1716 77.7273 51.9539 77.5248L43.1081 70.248C42.9853 70.1316 42.8867 69.992 42.818 69.8373C42.7492 69.6827 42.7117 69.516 42.7076 69.3468C42.7016 69.1561 42.7444 68.967 42.832 68.7976C42.9197 68.6282 43.0492 68.484 43.2083 68.3787L78.541 35.5996C80.0834 34.1808 82.1032 33.3944 84.1989 33.3965C86.3997 33.3978 88.5156 34.2465 90.1072 35.7665L97.9849 43.7777C98.1784 44.0063 98.2848 44.296 98.2853 44.5955C98.2853 44.9142 98.1587 45.2198 97.9333 45.4452C97.708 45.6705 97.4023 45.7972 97.0836 45.7972L84.4326 45.7638Z" fill="white"/>
<path d="M52.7215 78.1592C52.3647 78.1599 52.0201 78.0291 51.7535 77.792L42.9078 70.5151C42.7539 70.3761 42.6312 70.2061 42.5478 70.0162C42.4644 69.8263 42.4221 69.621 42.4238 69.4136C42.4181 69.1818 42.47 68.9522 42.5749 68.7454C42.6797 68.5386 42.8343 68.361 43.0246 68.2286L78.3239 35.4828C79.9153 34.0148 82.0004 33.1986 84.1654 33.1963C86.4322 33.1943 88.6109 34.0741 90.2406 35.6497L98.135 43.6609C98.3875 43.9326 98.5251 44.2915 98.5188 44.6623C98.5144 45.0489 98.3578 45.4182 98.0828 45.6901C97.8078 45.9619 97.4368 46.1144 97.0501 46.1144H84.7997C85.5404 48.4571 85.912 50.9008 85.9012 53.3578C85.9095 53.5079 85.9095 53.6584 85.9012 53.8084V54.0254C85.9055 55.5102 85.4809 56.9647 84.6786 58.2141C83.8762 59.4636 82.7302 60.4547 81.3782 61.0686C77.4084 62.7192 73.2483 63.8685 68.9942 64.49C65.7409 64.9733 62.4518 65.1743 59.1638 65.0909L53.9899 77.2412C53.8866 77.4983 53.7127 77.7209 53.4882 77.8833C53.2638 78.0457 52.998 78.1414 52.7215 78.1592ZM84.1988 33.7137C82.166 33.7156 80.2074 34.4776 78.7078 35.85L43.3417 68.6292C43.2145 68.7158 43.1112 68.8331 43.0412 68.9702C42.9712 69.1073 42.9368 69.2597 42.9411 69.4136C42.9423 69.5461 42.9711 69.6769 43.0257 69.7976C43.0803 69.9183 43.1595 70.0262 43.2583 70.1146L52.0873 77.3914C52.2 77.4878 52.3334 77.5571 52.4772 77.5938C52.621 77.6304 52.7713 77.6336 52.9164 77.6029C53.0616 77.5723 53.1978 77.5087 53.3145 77.417C53.4312 77.3254 53.5252 77.2081 53.5894 77.0743L58.8801 64.6069H59.0637C62.3556 64.6718 65.6465 64.4315 68.8941 63.8892C73.1048 63.285 77.225 62.1639 81.1612 60.5512C82.4182 59.9773 83.4833 59.0536 84.2292 57.8904C84.975 56.7272 85.3701 55.3738 85.3671 53.992V53.7417C85.3758 53.6027 85.3758 53.4634 85.3671 53.3244C85.3822 50.7992 84.9761 48.2891 84.1654 45.8974L84.0486 45.5469L97.0334 45.647C97.2829 45.6471 97.5223 45.5491 97.7003 45.3743C97.8782 45.1995 97.9804 44.9618 97.9848 44.7124C97.9884 44.5927 97.9681 44.4735 97.9251 44.3618C97.8821 44.25 97.8173 44.1479 97.7344 44.0615L89.8734 36.067C88.3557 34.5808 86.3229 33.7378 84.1988 33.7137Z" fill="white"/>
<path d="M143.749 112.524C144.285 111.923 144.577 111.143 144.567 110.338C144.567 109.453 144.215 108.604 143.589 107.978C142.963 107.352 142.114 107 141.229 107C140.423 106.993 139.645 107.298 139.059 107.851C137.945 108.975 136.619 109.867 135.158 110.474C133.697 111.081 132.13 111.393 130.547 111.389C128.966 111.43 127.393 111.146 125.926 110.554C124.46 109.963 123.129 109.077 122.019 107.951C121.402 107.349 120.577 107.008 119.715 107C119.261 106.989 118.811 107.08 118.397 107.268C117.984 107.456 117.619 107.735 117.329 108.085C116.296 109.171 115.054 110.036 113.676 110.627C112.299 111.218 110.816 111.523 109.317 111.523C107.834 111.548 106.362 111.264 104.994 110.689C103.627 110.115 102.393 109.262 101.373 108.185C101.061 107.816 100.673 107.518 100.235 107.314C99.7968 107.109 99.3196 107.002 98.8361 107C98.3895 106.995 97.9466 107.083 97.5357 107.258C97.1249 107.433 96.7549 107.692 96.4494 108.018C95.3356 109.14 94.0089 110.028 92.5472 110.629C91.0855 111.231 89.5183 111.535 87.9376 111.523C86.3482 111.52 84.7751 111.203 83.3086 110.59C81.8422 109.977 80.5112 109.08 79.3923 107.951C78.772 107.345 77.9399 107.004 77.0724 107C76.1871 107 75.338 107.352 74.712 107.978C74.0861 108.604 73.7344 109.453 73.7344 110.338C73.7619 111.164 74.0545 111.96 74.5689 112.608C76.1091 114.373 78.0102 115.787 80.1437 116.754C82.2773 117.722 84.5935 118.22 86.9362 118.216C90.3496 118.256 93.6933 117.248 96.5162 115.328C97.0924 114.864 97.8127 114.616 98.5524 114.627C99.3501 114.632 100.12 114.922 100.722 115.445C103.142 117.226 106.063 118.196 109.067 118.216C112.19 118.224 115.226 117.19 117.696 115.278C118.265 114.812 118.979 114.558 119.715 114.561C120.444 114.553 121.153 114.801 121.718 115.261C124.479 117.188 127.765 118.219 131.131 118.216C133.492 118.19 135.82 117.67 137.968 116.69C140.115 115.71 142.033 114.291 143.599 112.524" fill="white"/>
<path d="M109.233 118.499C106.163 118.472 103.18 117.479 100.705 115.662C100.154 115.169 99.4411 114.895 98.7018 114.894C98.0215 114.884 97.3594 115.115 96.8325 115.545C93.9582 117.494 90.5578 118.519 87.0855 118.483C84.7074 118.487 82.3558 117.983 80.1883 117.004C78.0208 116.025 76.0876 114.595 74.518 112.808C73.9561 112.112 73.6394 111.249 73.6167 110.355C73.6147 109.656 73.8207 108.972 74.2086 108.391C74.5965 107.809 75.1486 107.356 75.7947 107.089C76.4408 106.823 77.1517 106.754 77.8368 106.893C78.5219 107.032 79.1502 107.371 79.6418 107.868C81.858 110.081 84.8552 111.333 87.9868 111.356C89.5359 111.373 91.0726 111.079 92.506 110.491C93.9394 109.903 95.2403 109.034 96.3318 107.935C96.6765 107.572 97.0943 107.287 97.5574 107.098C98.0205 106.908 98.5185 106.82 99.0184 106.837C99.5184 106.854 100.009 106.977 100.458 107.198C100.907 107.419 101.304 107.733 101.623 108.118C102.625 109.162 103.831 109.989 105.166 110.549C106.501 111.109 107.936 111.389 109.383 111.373C110.846 111.373 112.293 111.077 113.638 110.503C114.983 109.93 116.199 109.09 117.211 108.035C117.52 107.654 117.913 107.349 118.358 107.143C118.804 106.938 119.291 106.837 119.781 106.85C120.714 106.853 121.608 107.225 122.268 107.885C123.331 108.956 124.598 109.803 125.994 110.376C127.39 110.949 128.887 111.237 130.396 111.223H130.613C133.744 111.215 136.745 109.967 138.958 107.751C139.585 107.147 140.424 106.811 141.295 106.816C141.977 106.817 142.644 107.016 143.216 107.387C143.788 107.758 144.24 108.287 144.519 108.909C144.798 109.532 144.89 110.221 144.786 110.895C144.682 111.569 144.385 112.199 143.932 112.708C142.343 114.5 140.397 115.938 138.217 116.93C136.038 117.922 133.675 118.445 131.281 118.466C127.862 118.473 124.524 117.43 121.717 115.479C121.199 115.041 120.543 114.801 119.865 114.801C119.186 114.801 118.53 115.041 118.012 115.479C115.498 117.425 112.412 118.487 109.233 118.499ZM98.7018 114.377C99.5617 114.381 100.391 114.695 101.038 115.262C103.457 117.06 106.398 118.017 109.411 117.987C112.425 117.957 115.346 116.941 117.728 115.095C118.332 114.582 119.098 114.3 119.89 114.3C120.682 114.3 121.448 114.582 122.051 115.095C124.771 116.982 128.004 117.989 131.314 117.982C133.637 117.963 135.929 117.455 138.042 116.492C140.156 115.528 142.043 114.131 143.581 112.391C143.961 111.955 144.208 111.42 144.293 110.848C144.378 110.276 144.297 109.692 144.06 109.165C143.823 108.638 143.439 108.19 142.955 107.874C142.471 107.558 141.906 107.388 141.328 107.384C140.59 107.382 139.879 107.663 139.342 108.168C138.202 109.314 136.847 110.224 135.355 110.846C133.863 111.467 132.263 111.788 130.646 111.79H130.429C128.85 111.798 127.286 111.49 125.827 110.886C124.368 110.281 123.045 109.391 121.934 108.268C121.369 107.711 120.609 107.394 119.815 107.384C119.398 107.372 118.984 107.456 118.605 107.63C118.226 107.804 117.892 108.062 117.628 108.385C116.572 109.502 115.299 110.392 113.887 111C112.475 111.608 110.954 111.923 109.417 111.924C107.897 111.943 106.389 111.65 104.988 111.061C103.587 110.472 102.322 109.601 101.272 108.502C100.991 108.153 100.635 107.872 100.23 107.678C99.8261 107.485 99.3837 107.384 98.9354 107.384C98.5249 107.382 98.1184 107.465 97.742 107.629C97.3655 107.793 97.0274 108.033 96.749 108.335C94.4339 110.644 91.2979 111.94 88.0285 111.94C84.7591 111.94 81.6231 110.644 79.308 108.335C78.7345 107.779 77.9704 107.463 77.1717 107.451C76.3734 107.451 75.6075 107.767 75.0415 108.33C74.4754 108.893 74.1552 109.657 74.1508 110.455C74.1759 111.223 74.4514 111.961 74.9352 112.558C76.4499 114.294 78.3203 115.685 80.4195 116.635C82.5188 117.586 84.7979 118.073 87.1022 118.066C90.4613 118.103 93.7516 117.113 96.5321 115.228C97.1303 114.703 97.8897 114.397 98.6851 114.36L98.7018 114.377Z" fill="white"/>
<path d="M135.169 20.9629C135.169 20.4583 134.969 19.9743 134.612 19.6175C134.255 19.2607 133.771 19.0602 133.267 19.0602H85.1662C84.9194 19.0536 84.6736 19.0959 84.4432 19.1848C84.2128 19.2737 84.0023 19.4073 83.8238 19.578C83.6453 19.7487 83.5025 19.9531 83.4034 20.1794C83.3044 20.4056 83.2512 20.6492 83.2469 20.8962V25.0353C83.2553 25.5477 83.4615 26.0369 83.8223 26.4009C84.1831 26.7648 84.6706 26.9751 85.1829 26.988H106.246L102.374 80.9968C98.9276 80.0446 95.7217 78.3747 92.9662 76.0967C90.2107 73.8187 87.9678 70.9839 86.3846 67.7784H67.2746C67.0269 67.7848 66.7829 67.8401 66.5565 67.9409C66.3302 68.0417 66.1259 68.1862 65.9554 68.366C65.7849 68.5457 65.6516 68.7574 65.5629 68.9887C65.4742 69.2201 65.432 69.4667 65.4387 69.7144V74.7214C65.4517 75.235 65.665 75.7231 66.0329 76.0817C66.4008 76.4403 66.8943 76.6409 67.4081 76.6407H72.4151C74.7328 84.6033 79.5742 91.5976 86.2107 96.5707C92.8471 101.544 100.919 104.227 109.212 104.215C117.505 104.204 125.57 101.499 132.193 96.5081C138.816 91.5169 143.639 84.5095 145.935 76.5406H150.741C151.245 76.5407 151.728 76.343 152.087 75.9903C152.446 75.6375 152.652 75.1579 152.661 74.6546V69.6476C152.667 69.4008 152.625 69.155 152.536 68.9246C152.447 68.6942 152.314 68.4837 152.143 68.3052C151.972 68.1267 151.768 67.9839 151.541 67.8848C151.315 67.7858 151.072 67.7326 150.825 67.7283H132.065C130.508 70.997 128.256 73.8857 125.465 76.1921C122.674 78.4985 119.413 80.1669 115.909 81.0803L112.187 26.9713H133.2C133.446 26.9802 133.69 26.9407 133.921 26.8549C134.151 26.7691 134.362 26.6388 134.542 26.4714C134.722 26.304 134.867 26.1028 134.969 25.8792C135.071 25.6557 135.127 25.4143 135.136 25.1688L135.169 20.9629Z" fill="white"/>
<path d="M109.134 104.463C100.834 104.435 92.7639 101.738 86.1156 96.7695C79.4673 91.8013 74.5938 84.826 72.2154 76.8746H67.3586C66.7741 76.8747 66.2127 76.646 65.7947 76.2373C65.3767 75.8287 65.1353 75.2726 65.1222 74.6882V69.6812C65.1155 69.4006 65.1642 69.1215 65.2655 68.8598C65.3667 68.598 65.5186 68.3588 65.7123 68.1557C65.9061 67.9527 66.1379 67.7898 66.3946 67.6764C66.6513 67.563 66.9279 67.5013 67.2084 67.4948H86.4854V67.6283C88.0264 70.7538 90.203 73.523 92.8757 75.759C95.5485 77.9949 98.6586 79.6482 102.007 80.6131L105.829 27.2052H85.1836C84.602 27.1922 84.0484 26.9531 83.6402 26.5386C83.232 26.1242 83.0014 25.5671 82.9972 24.9854V20.863C83.0015 20.5824 83.0611 20.3054 83.1725 20.0479C83.2839 19.7904 83.4449 19.5573 83.6464 19.362C83.8479 19.1668 84.0859 19.0131 84.3467 18.9098C84.6076 18.8065 84.8863 18.7556 85.1669 18.76H133.267C133.838 18.76 134.386 18.9868 134.79 19.3906C135.194 19.7944 135.42 20.342 135.42 20.913V25.1356C135.414 25.4169 135.352 25.6941 135.237 25.951C135.122 26.2079 134.958 26.4394 134.753 26.6321C134.548 26.8247 134.306 26.9746 134.043 27.073C133.779 27.1714 133.498 27.2163 133.217 27.2052H112.472L116.16 80.7133C119.555 79.7714 122.709 78.1153 125.412 75.8558C128.115 73.5963 130.304 70.7855 131.832 67.6116V67.4614H150.792C151.072 67.4635 151.35 67.5217 151.607 67.6325C151.865 67.7433 152.098 67.9046 152.292 68.1067C152.487 68.3089 152.639 68.5479 152.739 68.8097C152.84 69.0715 152.887 69.3508 152.878 69.6311V74.6381C152.874 75.2107 152.643 75.7583 152.237 76.1616C151.83 76.5648 151.281 76.7911 150.709 76.7911H146.119C143.745 84.7649 138.866 91.762 132.204 96.746C125.543 101.73 117.453 104.436 109.134 104.463ZM67.2752 68.0289C66.8501 68.0544 66.4509 68.2415 66.1592 68.5518C65.8676 68.862 65.7056 69.272 65.7063 69.6979V74.7049C65.7063 75.1475 65.8822 75.572 66.1952 75.885C66.5082 76.198 66.9327 76.3739 67.3753 76.3739H72.616V76.5575C74.9177 84.4672 79.7261 91.4154 86.3177 96.3564C92.9092 101.297 100.927 103.964 109.165 103.954C117.403 103.945 125.415 101.26 131.995 96.3042C138.575 91.3482 143.368 84.389 145.651 76.474V76.2904H150.658C151.101 76.2904 151.526 76.1146 151.839 75.8016C152.152 75.4886 152.327 75.0641 152.327 74.6214V69.6144C152.328 69.1886 152.166 68.7786 151.875 68.4683C151.583 68.158 151.184 67.971 150.759 67.9454H132.216C130.631 71.2064 128.361 74.0872 125.561 76.3913C122.762 78.6955 119.498 80.3689 115.993 81.2974L115.676 81.3809V81.0638L111.921 26.7045H133.201C133.624 26.7055 134.032 26.5458 134.341 26.2576C134.651 25.9695 134.84 25.5744 134.87 25.1523V20.913C134.87 20.4704 134.694 20.0459 134.381 19.7329C134.068 19.4199 133.643 19.244 133.201 19.244H85.1669C84.7383 19.2435 84.326 19.4078 84.0153 19.703C83.7046 19.9982 83.5193 20.4015 83.4979 20.8296V25.0355C83.4979 25.4781 83.6737 25.9026 83.9867 26.2156C84.2997 26.5286 84.7242 26.7045 85.1669 26.7045H106.513V26.9882L102.558 81.2974L102.257 81.214C98.8027 80.2635 95.5858 78.599 92.8144 76.3279C90.0431 74.0567 87.7789 71.2295 86.1683 68.0289H67.2752Z" fill="white"/>
<path d="M120.917 15.4883C121.087 15.4906 121.256 15.459 121.414 15.3954C121.572 15.3318 121.715 15.2375 121.836 15.1179C121.958 14.9983 122.054 14.8559 122.119 14.6989C122.185 14.5419 122.219 14.3734 122.219 14.2032C122.22 14.0137 122.18 13.8262 122.103 13.6534C122.025 13.4806 121.911 13.3266 121.768 13.2018L114.792 7.9111L121.818 2.43678C122.055 2.17532 122.191 1.83807 122.202 1.48544C122.2 1.31448 122.164 1.14562 122.097 0.988505C122.029 0.831393 121.931 0.689116 121.809 0.569778C121.687 0.450439 121.542 0.356396 121.383 0.293003C121.224 0.229611 121.055 0.198098 120.884 0.200304H103.392C102.891 0.213431 102.415 0.424264 102.068 0.786883C101.721 1.1495 101.531 1.63454 101.54 2.13635V13.6858C101.54 13.9341 101.589 14.18 101.685 14.409C101.781 14.638 101.922 14.8455 102.099 15.0196C102.276 15.1936 102.486 15.3306 102.717 15.4225C102.948 15.5145 103.194 15.5596 103.443 15.5551L120.917 15.4883Z" fill="white"/>
<path d="M103.376 15.8055C103.093 15.8077 102.813 15.7542 102.551 15.648C102.288 15.5419 102.05 15.3851 101.848 15.1867C101.647 14.9883 101.487 14.7522 101.376 14.4919C101.266 14.2315 101.208 13.9519 101.206 13.6692V2.11973C101.219 1.55011 101.456 1.0085 101.865 0.611908C102.274 0.215314 102.823 -0.00444348 103.392 9.068e-05H120.917C121.121 -0.0021129 121.323 0.0358648 121.512 0.111839C121.701 0.187814 121.874 0.300299 122.019 0.442884C122.165 0.585469 122.281 0.75534 122.361 0.942825C122.441 1.13031 122.484 1.33173 122.486 1.53557C122.48 1.95144 122.319 2.35022 122.035 2.65379L115.242 7.96123L121.918 12.9682C122.159 13.1772 122.331 13.4546 122.41 13.7635C122.489 14.0724 122.472 14.3981 122.362 14.6973C122.251 14.9964 122.052 15.2547 121.791 15.4378C121.53 15.6209 121.219 15.72 120.9 15.7221L103.376 15.8055ZM103.376 0.434021C102.933 0.434021 102.509 0.609861 102.196 0.922859C101.883 1.23586 101.707 1.66037 101.707 2.10302V13.6525C101.707 14.0951 101.883 14.5197 102.196 14.8327C102.509 15.1457 102.933 15.3215 103.376 15.3215H120.9C121.175 15.3215 121.438 15.2125 121.632 15.0184C121.826 14.8244 121.935 14.5612 121.935 14.2867C121.94 14.1355 121.911 13.9852 121.85 13.8466C121.79 13.7081 121.699 13.5847 121.585 13.4856L114.341 7.99459L121.635 2.30332C121.815 2.10102 121.916 1.84004 121.918 1.56895C121.916 1.43306 121.887 1.29893 121.833 1.17422C121.779 1.0495 121.701 0.936645 121.604 0.842103C121.506 0.747561 121.391 0.673186 121.264 0.623215C121.138 0.573244 121.003 0.548654 120.867 0.550864L103.376 0.434021Z" fill="white"/>
<path d="M132.733 45.6473C131.909 48.0648 131.497 50.6037 131.515 53.1578C131.515 53.3747 131.515 53.5917 131.515 53.8087C131.512 55.2418 131.921 56.6456 132.693 57.8528C133.466 59.0601 134.569 60.02 135.871 60.6182C139.823 62.236 143.96 63.3573 148.188 63.9562C151.453 64.4955 154.76 64.7413 158.069 64.6905L163.309 76.9911C163.403 77.2048 163.558 77.3865 163.753 77.5139C163.949 77.6414 164.177 77.7091 164.411 77.7087C164.705 77.7058 164.988 77.5995 165.212 77.4083L174.058 70.1148C174.181 70.0027 174.281 69.8663 174.35 69.7141C174.419 69.562 174.456 69.3972 174.458 69.2302C174.464 69.0396 174.421 68.8505 174.334 68.6811C174.246 68.5117 174.117 68.3674 173.957 68.2622L138.658 35.5498C137.116 34.1311 135.096 33.3446 133 33.3467C130.798 33.3393 128.679 34.1893 127.092 35.7167L119.248 43.7279C119.047 43.9455 118.939 44.233 118.947 44.529C118.947 44.8477 119.074 45.1534 119.299 45.3787C119.525 45.6041 119.83 45.7307 120.149 45.7307L132.733 45.6473Z" fill="white"/>
<path d="M164.444 78.0429C164.164 78.0414 163.89 77.9607 163.654 77.8101C163.418 77.6595 163.229 77.4451 163.109 77.1917L157.935 65.008C154.671 65.0567 151.41 64.8166 148.188 64.2904C143.935 63.6536 139.777 62.499 135.804 60.8522C134.451 60.2401 133.304 59.2493 132.501 57.9995C131.699 56.7497 131.275 55.2944 131.281 53.8091V53.1582C131.271 50.6957 131.642 48.2465 132.383 45.898L120.132 45.9981C119.743 45.9981 119.369 45.8434 119.094 45.568C118.818 45.2925 118.664 44.9189 118.664 44.5294C118.662 44.1643 118.799 43.8122 119.047 43.5447L126.925 35.5335C128.561 33.9569 130.745 33.0772 133.017 33.0801C135.18 33.0762 137.265 33.8865 138.858 35.3499L174.191 68.1291C174.376 68.2605 174.525 68.4364 174.624 68.6406C174.724 68.8448 174.77 69.0707 174.759 69.2974C174.757 69.5018 174.713 69.7036 174.63 69.8903C174.547 70.077 174.426 70.2444 174.275 70.3822L165.429 77.6757C165.156 77.914 164.806 78.0446 164.444 78.0429ZM158.269 64.4907L163.576 76.9581C163.654 77.124 163.776 77.2651 163.93 77.3653C164.083 77.4655 164.261 77.521 164.444 77.5255C164.68 77.5266 164.907 77.437 165.078 77.2752L173.924 69.9817C174.019 69.8944 174.094 69.7886 174.146 69.6709C174.197 69.5531 174.224 69.426 174.225 69.2974C174.232 69.1514 174.202 69.006 174.137 68.8747C174.073 68.7434 173.977 68.6305 173.857 68.5463L138.491 35.7338C136.995 34.3558 135.034 33.5929 133 33.5975C130.866 33.5953 128.814 34.4209 127.276 35.9007L119.398 43.8952C119.275 44.0326 119.195 44.2028 119.167 44.3851C119.139 44.5673 119.164 44.7538 119.24 44.9217C119.316 45.0897 119.44 45.232 119.595 45.3312C119.75 45.4305 119.931 45.4824 120.116 45.4807L133.1 45.3806L132.984 45.7311C132.165 48.1208 131.759 50.6323 131.782 53.1582V53.8091C131.776 55.1937 132.169 56.5506 132.915 57.7171C133.661 58.8835 134.728 59.8099 135.988 60.3849C139.924 61.9976 144.044 63.1188 148.255 63.7229C151.504 64.2569 154.794 64.4971 158.085 64.4406L158.269 64.4907Z" fill="white"/>
<path d="M0 163.425V144.898H6.1272C7.40646 144.898 8.60632 145.14 9.72677 145.626C10.8472 146.102 11.8309 146.768 12.6779 147.624C13.5248 148.471 14.1865 149.455 14.6629 150.575C15.1482 151.687 15.3908 152.882 15.3908 154.161C15.3908 155.441 15.1482 156.64 14.6629 157.761C14.1865 158.873 13.5248 159.856 12.6779 160.712C11.8309 161.559 10.8472 162.225 9.72677 162.71C8.60632 163.187 7.40646 163.425 6.1272 163.425H0ZM2.75261 160.672H6.1272C7.02709 160.672 7.86523 160.505 8.64161 160.169C9.42681 159.834 10.1194 159.367 10.7193 158.767C11.328 158.167 11.8 157.474 12.1353 156.689C12.4706 155.904 12.6382 155.061 12.6382 154.161C12.6382 153.261 12.4706 152.419 12.1353 151.634C11.8 150.849 11.328 150.156 10.7193 149.556C10.1194 148.956 9.42681 148.489 8.64161 148.153C7.86523 147.818 7.02709 147.65 6.1272 147.65H2.75261V160.672Z" fill="white"/>
<path d="M31.2843 163.425V144.898H34.0369V163.425H31.2843Z" fill="white"/>
<path d="M57.4448 163.769C56.4302 163.769 55.4553 163.61 54.5201 163.293C53.585 162.975 52.7689 162.521 52.0719 161.93C51.3749 161.33 50.8765 160.619 50.5765 159.799L53.1571 158.833C53.3071 159.256 53.5938 159.636 54.0173 159.971C54.4496 160.297 54.9613 160.553 55.5524 160.739C56.1523 160.924 56.7831 161.016 57.4448 161.016C58.1506 161.016 58.8123 160.902 59.4299 160.672C60.0563 160.443 60.5591 160.125 60.9385 159.72C61.3267 159.314 61.5208 158.837 61.5208 158.29C61.5208 157.726 61.3179 157.262 60.912 156.901C60.515 156.539 60.0033 156.252 59.3769 156.041C58.7593 155.829 58.1153 155.67 57.4448 155.564C56.1479 155.352 54.9833 155.044 53.9511 154.638C52.9277 154.232 52.116 153.663 51.5161 152.931C50.925 152.198 50.6294 151.246 50.6294 150.072C50.6294 148.969 50.9426 148.008 51.569 147.187C52.2043 146.367 53.038 145.732 54.0702 145.282C55.1113 144.823 56.2361 144.593 57.4448 144.593C58.4417 144.593 59.4034 144.752 60.3297 145.07C61.2649 145.379 62.0854 145.833 62.7912 146.433C63.5058 147.024 64.0175 147.743 64.3263 148.59L61.7193 149.53C61.5693 149.097 61.2826 148.722 60.8591 148.405C60.4356 148.078 59.9239 147.822 59.324 147.637C58.7329 147.452 58.1065 147.359 57.4448 147.359C56.739 147.35 56.0773 147.465 55.4597 147.703C54.851 147.933 54.3525 148.25 53.9643 148.656C53.5761 149.062 53.3821 149.534 53.3821 150.072C53.3821 150.734 53.5629 151.237 53.9246 151.581C54.2864 151.925 54.7716 152.181 55.3803 152.348C55.9979 152.507 56.6861 152.653 57.4448 152.785C58.6623 152.979 59.7872 153.301 60.8194 153.751C61.8604 154.201 62.6942 154.801 63.3206 155.551C63.9558 156.292 64.2734 157.205 64.2734 158.29C64.2734 159.384 63.9558 160.346 63.3206 161.175C62.6942 161.996 61.8604 162.635 60.8194 163.094C59.7872 163.544 58.6623 163.769 57.4448 163.769Z" fill="white"/>
<path d="M88.8047 163.769C87.5519 163.769 86.3741 163.522 85.2713 163.028C84.1685 162.525 83.1981 161.837 82.3599 160.963C81.5306 160.081 80.8777 159.058 80.4013 157.893C79.9337 156.729 79.6999 155.485 79.6999 154.161C79.6999 152.838 79.9337 151.594 80.4013 150.429C80.8777 149.265 81.5306 148.246 82.3599 147.372C83.1981 146.49 84.1685 145.802 85.2713 145.308C86.3741 144.805 87.5519 144.554 88.8047 144.554C90.3046 144.554 91.6853 144.902 92.9469 145.599C94.2085 146.296 95.254 147.223 96.0833 148.378L93.635 149.688C93.0616 148.965 92.3514 148.387 91.5044 147.955C90.6575 147.522 89.7576 147.306 88.8047 147.306C87.9225 147.306 87.0976 147.487 86.33 147.849C85.5625 148.211 84.8876 148.705 84.3053 149.331C83.723 149.957 83.2686 150.685 82.9422 151.515C82.6158 152.344 82.4526 153.226 82.4526 154.161C82.4526 155.105 82.6158 155.992 82.9422 156.821C83.2686 157.642 83.723 158.37 84.3053 159.005C84.8964 159.631 85.5757 160.125 86.3433 160.487C87.1108 160.84 87.9313 161.016 88.8047 161.016C89.7752 161.016 90.6795 160.8 91.5176 160.368C92.3646 159.927 93.0704 159.345 93.635 158.621L96.0833 159.958C95.254 161.113 94.2085 162.04 92.9469 162.737C91.6853 163.425 90.3046 163.769 88.8047 163.769Z" fill="white"/>
<path d="M120.416 163.769C119.164 163.769 117.986 163.522 116.883 163.028C115.78 162.525 114.81 161.833 113.972 160.95C113.133 160.068 112.476 159.049 112 157.893C111.523 156.729 111.285 155.485 111.285 154.161C111.285 152.838 111.523 151.598 112 150.443C112.476 149.278 113.133 148.255 113.972 147.372C114.81 146.49 115.78 145.802 116.883 145.308C117.986 144.805 119.164 144.554 120.416 144.554C121.678 144.554 122.86 144.805 123.963 145.308C125.066 145.802 126.036 146.49 126.874 147.372C127.712 148.255 128.365 149.278 128.833 150.443C129.309 151.598 129.548 152.838 129.548 154.161C129.548 155.485 129.309 156.729 128.833 157.893C128.365 159.049 127.712 160.068 126.874 160.95C126.036 161.833 125.066 162.525 123.963 163.028C122.86 163.522 121.678 163.769 120.416 163.769ZM120.416 161.016C121.299 161.016 122.123 160.836 122.891 160.474C123.659 160.112 124.333 159.618 124.916 158.992C125.507 158.356 125.966 157.629 126.292 156.808C126.627 155.979 126.795 155.097 126.795 154.161C126.795 153.226 126.627 152.344 126.292 151.515C125.966 150.685 125.507 149.957 124.916 149.331C124.333 148.696 123.659 148.202 122.891 147.849C122.123 147.487 121.299 147.306 120.416 147.306C119.534 147.306 118.709 147.487 117.942 147.849C117.174 148.211 116.495 148.709 115.904 149.344C115.321 149.971 114.863 150.699 114.527 151.528C114.201 152.348 114.038 153.226 114.038 154.161C114.038 155.105 114.201 155.992 114.527 156.821C114.863 157.642 115.321 158.37 115.904 159.005C116.495 159.631 117.174 160.125 117.942 160.487C118.709 160.84 119.534 161.016 120.416 161.016Z" fill="white"/>
<path d="M150.805 163.425L144.082 144.898H146.993L152.525 160.156L158.083 144.898H160.995L154.272 163.425H150.805Z" fill="white"/>
<path d="M176.613 163.425V144.898H188.113V147.65H179.366V152.123H186.406V154.876H179.366V160.672H188.113V163.425H176.613Z" fill="white"/>
<path d="M204.373 163.425V144.898H211.188C212.194 144.898 213.098 145.145 213.901 145.639C214.704 146.133 215.339 146.799 215.807 147.637C216.283 148.466 216.521 149.393 216.521 150.416C216.521 151.281 216.358 152.07 216.032 152.785C215.714 153.5 215.264 154.108 214.682 154.611C214.108 155.114 213.451 155.476 212.71 155.696L217.183 163.425H213.994L209.653 155.948H207.125V163.425H204.373ZM207.125 153.195H210.897C211.426 153.195 211.907 153.063 212.339 152.798C212.781 152.534 213.129 152.181 213.385 151.74C213.641 151.298 213.769 150.8 213.769 150.244C213.769 149.688 213.641 149.19 213.385 148.749C213.129 148.299 212.781 147.946 212.339 147.69C211.907 147.425 211.426 147.293 210.897 147.293H207.125V153.195Z" fill="white"/>
<path d="M0 225.166V180.046H7.90471V217.302H26.7918V225.166H0Z" fill="white"/>
<path d="M34.8868 225.166V180.046H42.7915V225.166H34.8868Z" fill="white"/>
<path d="M67.8962 226.003C65.3908 226.003 62.9827 225.617 60.6718 224.843C58.3824 224.048 56.3739 222.92 54.6461 221.459C52.9182 219.977 51.6764 218.204 50.9205 216.142L58.3392 213.434C58.6416 214.294 59.2571 215.078 60.1858 215.787C61.1145 216.496 62.2484 217.065 63.5874 217.495C64.9265 217.925 66.3627 218.14 67.8962 218.14C69.4728 218.14 70.9414 217.903 72.3021 217.431C73.6843 216.937 74.7966 216.26 75.6389 215.4C76.4812 214.519 76.9023 213.499 76.9023 212.339C76.9023 211.157 76.4596 210.19 75.5741 209.438C74.6886 208.665 73.5547 208.052 72.1725 207.601C70.7902 207.15 69.3648 206.806 67.8962 206.57C64.6781 206.076 61.7948 205.313 59.2463 204.282C56.6978 203.25 54.6784 201.822 53.1882 199.995C51.7196 198.169 50.9853 195.806 50.9853 192.905C50.9853 190.176 51.7736 187.791 53.3502 185.75C54.9268 183.709 57.0002 182.119 59.5703 180.981C62.1404 179.842 64.9157 179.272 67.8962 179.272C70.3799 179.272 72.7772 179.659 75.0881 180.433C77.3991 181.206 79.4185 182.334 81.1463 183.817C82.8957 185.299 84.1483 187.082 84.9042 189.167L77.4531 191.841C77.1507 190.982 76.5352 190.198 75.6065 189.489C74.6778 188.78 73.5439 188.221 72.2049 187.813C70.8658 187.383 69.4296 187.168 67.8962 187.168C66.3627 187.147 64.9049 187.394 63.5226 187.91C62.162 188.404 61.0497 189.081 60.1858 189.94C59.3219 190.799 58.89 191.788 58.89 192.905C58.89 194.345 59.2895 195.43 60.0886 196.16C60.9093 196.891 62 197.428 63.3607 197.771C64.7213 198.094 66.2331 198.395 67.8962 198.674C70.9198 199.147 73.7167 199.942 76.2868 201.059C78.8569 202.176 80.9195 203.669 82.4745 205.539C84.0295 207.386 84.807 209.653 84.807 212.339C84.807 215.067 84.0295 217.463 82.4745 219.526C80.9195 221.567 78.8569 223.157 76.2868 224.295C73.7167 225.434 70.9198 226.003 67.8962 226.003Z" fill="white"/>
<path d="M92.1904 225.166V180.046H108.713C111.11 180.046 113.27 180.54 115.192 181.528C117.136 182.495 118.669 183.892 119.792 185.718C120.937 187.523 121.509 189.661 121.509 192.132C121.509 193.227 121.347 194.334 121.023 195.451C120.699 196.568 120.202 197.578 119.533 198.481C118.863 199.361 117.999 200.017 116.941 200.446C118.345 200.79 119.49 201.413 120.375 202.316C121.261 203.218 121.952 204.282 122.449 205.506C122.945 206.709 123.28 207.945 123.453 209.213C123.647 210.459 123.744 211.619 123.744 212.693C123.744 215.078 123.15 217.205 121.963 219.074C120.775 220.944 119.177 222.426 117.168 223.522C115.181 224.618 112.978 225.166 110.559 225.166H92.1904ZM100.095 218.43H109.749C111.045 218.43 112.211 218.118 113.248 217.495C114.285 216.872 115.116 216.013 115.743 214.917C116.369 213.821 116.682 212.575 116.682 211.178C116.682 209.975 116.369 208.837 115.743 207.762C115.116 206.688 114.285 205.818 113.248 205.152C112.211 204.486 111.045 204.153 109.749 204.153H100.095V218.43ZM100.095 197.514H107.805C109.404 197.514 110.764 197.02 111.887 196.031C113.032 195.043 113.604 193.732 113.604 192.099C113.604 190.359 113.032 189.048 111.887 188.167C110.764 187.265 109.404 186.814 107.805 186.814H100.095V197.514Z" fill="white"/>
<path d="M150.01 226.003C146.943 226.003 144.06 225.402 141.36 224.199C138.661 222.974 136.285 221.287 134.233 219.139C132.181 216.99 130.572 214.509 129.406 211.694C128.24 208.858 127.657 205.829 127.657 202.606C127.657 199.383 128.24 196.364 129.406 193.55C130.572 190.714 132.181 188.221 134.233 186.073C136.285 183.924 138.661 182.248 141.36 181.045C144.06 179.82 146.943 179.208 150.01 179.208C153.099 179.208 155.993 179.82 158.692 181.045C161.392 182.248 163.768 183.924 165.82 186.073C167.871 188.221 169.47 190.714 170.614 193.55C171.781 196.364 172.364 199.383 172.364 202.606C172.364 205.829 171.781 208.858 170.614 211.694C169.47 214.509 167.871 216.99 165.82 219.139C163.768 221.287 161.392 222.974 158.692 224.199C155.993 225.402 153.099 226.003 150.01 226.003ZM150.01 218.14C151.997 218.14 153.865 217.732 155.615 216.915C157.364 216.099 158.898 214.981 160.215 213.563C161.554 212.124 162.591 210.469 163.325 208.6C164.081 206.731 164.459 204.733 164.459 202.606C164.459 200.479 164.081 198.481 163.325 196.611C162.569 194.721 161.522 193.066 160.183 191.648C158.865 190.23 157.332 189.113 155.582 188.296C153.855 187.48 151.997 187.072 150.01 187.072C148.023 187.072 146.155 187.48 144.406 188.296C142.656 189.113 141.112 190.241 139.773 191.68C138.456 193.098 137.419 194.742 136.663 196.611C135.929 198.481 135.561 200.479 135.561 202.606C135.561 204.754 135.939 206.763 136.695 208.632C137.451 210.502 138.488 212.156 139.805 213.596C141.144 215.014 142.678 216.131 144.406 216.947C146.155 217.742 148.023 218.14 150.01 218.14Z" fill="white"/>
<path d="M190.557 180.046H199.661L216.15 225.166H207.76L204.844 217.173H185.406L182.491 225.166H174.1L190.557 180.046ZM188.29 209.309H201.928L195.093 190.714L188.29 209.309Z" fill="white"/>
</svg>
