<svg width="20" height="20" viewBox="0 0 20 20" fill="none" xmlns="http://www.w3.org/2000/svg">
<path d="M15.417 17.2507H4.58366C3.00033 17.2507 1.66699 16.0007 1.66699 14.334V8.25065C1.66699 6.66732 2.91699 5.41732 4.58366 5.41732H5.58366L6.33366 4.41732C6.83366 3.75065 7.66699 3.33398 8.50033 3.33398H11.417C12.3337 3.33398 13.0837 3.75065 13.667 4.41732L14.417 5.41732H15.417C17.0837 5.41732 18.3337 6.66732 18.3337 8.25065V14.4173C18.3337 16.0007 17.0837 17.2507 15.417 17.2507ZM4.58366 7.08398C3.91699 7.08398 3.33366 7.58398 3.33366 8.25065V14.4173C3.33366 15.084 3.91699 15.6673 4.58366 15.6673H15.5003C16.167 15.6673 16.7503 15.084 16.7503 14.4173V8.25065C16.7503 7.58398 16.167 7.00065 15.5003 7.00065H14.167C13.917 7.00065 13.667 6.91732 13.5003 6.66732L12.5003 5.41732C12.167 5.16732 11.8337 5.00065 11.5003 5.00065H8.50033C8.16699 5.00065 7.83366 5.16732 7.58366 5.41732L6.58366 6.75065C6.41699 6.91732 6.16699 7.08398 5.91699 7.08398H4.58366Z" fill="currentColor"/>
<path d="M9.99939 14.5846C7.99935 14.5846 6.41602 13.0013 6.41602 11.0013C6.41602 9.0013 7.99935 7.41797 9.99939 7.41797C11.9994 7.41797 13.5827 9.0013 13.5827 11.0013C13.5827 12.918 11.9994 14.5846 9.99939 14.5846ZM9.99939 9.08464C8.91606 9.08464 8.08268 9.91797 8.08268 11.0013C8.08268 12.0846 8.91606 12.918 9.99939 12.918C11.0827 12.918 11.9161 12.0846 11.9161 11.0013C11.9161 9.91797 11.0827 9.08464 9.99939 9.08464Z" fill="currentColor"/>
</svg>
