<svg width="20" height="20" viewBox="0 0 20 20" fill="none" xmlns="http://www.w3.org/2000/svg">
<path d="M11.6663 1.89258V5.33469C11.6663 5.8014 11.6663 6.03476 11.7572 6.21302C11.8371 6.36982 11.9645 6.4973 12.1213 6.5772C12.2996 6.66803 12.5329 6.66803 12.9997 6.66803H16.4418M11.6663 14.168H6.66634M13.333 10.8346H6.66634M16.6663 8.32482V14.3346C16.6663 15.7348 16.6663 16.4348 16.3938 16.9696C16.1542 17.4401 15.7718 17.8225 15.3013 18.0621C14.7665 18.3346 14.0665 18.3346 12.6663 18.3346H7.33301C5.93287 18.3346 5.23281 18.3346 4.69803 18.0621C4.22762 17.8225 3.84517 17.4401 3.60549 16.9696C3.33301 16.4348 3.33301 15.7348 3.33301 14.3346V5.66797C3.33301 4.26784 3.33301 3.56777 3.60549 3.03299C3.84517 2.56259 4.22762 2.18014 4.69803 1.94045C5.23281 1.66797 5.93287 1.66797 7.33301 1.66797H10.0095C10.6209 1.66797 10.9267 1.66797 11.2144 1.73704C11.4695 1.79829 11.7133 1.89929 11.9371 2.03637C12.1893 2.19097 12.4055 2.40716 12.8379 2.83954L15.4948 5.49639C15.9272 5.92878 16.1433 6.14497 16.2979 6.39726C16.435 6.62094 16.536 6.8648 16.5973 7.11989C16.6663 7.40761 16.6663 7.71334 16.6663 8.32482Z" stroke="currentColor" strokeWidth="1.66667" strokeLinecap="round" stroke-linejoin="round"/>
</svg>
