<svg width="20" height="20" viewBox="0 0 20 20" fill="none" xmlns="http://www.w3.org/2000/svg">
<path d="M2.58366 7.58333L8.33366 10.1667C8.83366 10.4167 9.41699 10.5 10.0003 10.5C10.5837 10.5 11.0837 10.4167 11.667 10.1667L17.417 7.58333C18.0003 7.33333 18.3337 6.75 18.3337 6.08333C18.3337 5.41667 18.0003 4.91667 17.417 4.58333L11.667 2C10.5837 1.5 9.41699 1.5 8.41699 2L2.58366 4.66667C2.00033 4.91667 1.66699 5.5 1.66699 6.08333C1.66699 6.75 2.00033 7.33333 2.58366 7.58333ZM9.08366 3.5C9.66699 3.25 10.417 3.25 11.0003 3.5L16.667 6.08333L11.0003 8.66667C10.417 8.91667 9.66699 8.91667 9.08366 8.66667L3.41699 6.08333L9.08366 3.5Z" fill="currentColor"/>
<path d="M16.6661 9.91738L10.9161 12.5007C10.3327 12.7507 9.58272 12.7507 8.99939 12.5007L3.33275 9.91738C2.91608 9.75072 2.41608 9.91738 2.24941 10.334C2.08275 10.7507 2.24941 11.2507 2.66608 11.4174L8.33275 14.084C8.83272 14.334 9.41606 14.4174 9.99939 14.4174C10.5827 14.4174 11.0827 14.334 11.6661 14.084L17.4161 11.5007C17.8327 11.334 17.9994 10.834 17.8327 10.4174C17.5827 9.91738 17.0827 9.75072 16.6661 9.91738Z" fill="currentColor"/>
<path d="M16.667 13.8334L10.917 16.4167C10.3337 16.6667 9.5837 16.6667 9.00037 16.4167L3.33372 13.8334C2.91706 13.6667 2.41706 13.8334 2.25039 14.2501C2.08372 14.6667 2.25039 15.1667 2.66706 15.3334L8.33372 18.0001C8.8337 18.2501 9.41703 18.3334 10.0004 18.3334C10.5837 18.3334 11.0837 18.2501 11.667 18.0001L17.417 15.4167C17.8337 15.2501 18.0004 14.7501 17.8337 14.3334C17.5837 13.8334 17.0837 13.6667 16.667 13.8334Z" fill="currentColor"/>
</svg>
