<svg width="20" height="20" viewBox="0 0 20 20" fill="none" xmlns="http://www.w3.org/2000/svg">
<path d="M14.552 6.78407L9.98093 9.25505L5.40982 6.78407C4.99427 6.53697 4.49561 6.7017 4.24628 7.11353C4.08006 7.52536 4.16317 8.01955 4.57872 8.26665L9.14977 10.7376V15.8443C9.14977 16.3385 9.48227 16.668 9.98093 16.668C10.4796 16.668 10.812 16.3385 10.812 15.8443V10.7376L15.3831 8.26665C15.7987 8.01955 15.9648 7.52536 15.7155 7.11353C15.4662 6.7017 14.9675 6.53697 14.552 6.78407Z" fill="currentColor"/>
<path d="M16.5827 4.18434L11.5827 1.27098C10.5827 0.688317 9.33268 0.688317 8.33268 1.27098L3.41602 4.18434C2.33268 4.76702 1.66602 6.01559 1.66602 7.26418V12.7579C1.66602 14.0065 2.33268 15.2551 3.41602 15.8377L8.41602 18.7512C8.91602 19.0008 9.41602 19.1673 9.99935 19.1673C10.5827 19.1673 11.0827 19.0008 11.5827 18.7512L16.5827 15.8377C17.666 15.2551 18.3327 14.0065 18.3327 12.7579V7.26418C18.3327 6.01559 17.666 4.76702 16.5827 4.18434ZM16.666 12.7579C16.666 13.4238 16.3327 14.0897 15.7493 14.4227L10.7493 17.3361C10.2493 17.5858 9.66602 17.5858 9.16602 17.3361L4.16602 14.4227C3.58268 14.0897 3.24935 13.5071 3.24935 12.7579V7.26418C3.24935 6.59827 3.58268 5.93236 4.16602 5.5994L9.16602 2.68604C9.49935 2.60281 9.74935 2.51957 9.99935 2.51957C10.2493 2.51957 10.4993 2.60281 10.7493 2.76929L15.7493 5.68264C16.3327 6.01559 16.666 6.59827 16.666 7.34742V12.7579Z" fill="currentColor"/>
</svg>
