<svg width="20" height="20" viewBox="0 0 20 20" fill="none" xmlns="http://www.w3.org/2000/svg">
<path d="M14.7493 1.66602H5.24935C3.24935 1.66602 1.66602 3.24935 1.66602 5.24935V14.8327C1.66602 16.7493 3.24935 18.3327 5.24935 18.3327H14.8327C16.8327 18.3327 18.416 16.7493 18.416 14.7493V5.24935C18.3327 3.24935 16.7493 1.66602 14.7493 1.66602ZM10.8327 8.08268H16.666V11.8327H10.8327V8.08268ZM16.666 5.24935V6.49935H10.8327V3.33268H14.7493C15.8327 3.33268 16.666 4.16602 16.666 5.24935ZM3.33268 14.7493V5.24935C3.33268 4.16602 4.16602 3.33268 5.24935 3.33268H9.16602V16.666H5.24935C4.16602 16.666 3.33268 15.8327 3.33268 14.7493ZM14.7493 16.666H10.8327V13.5827H16.666V14.8327C16.666 15.8327 15.8327 16.666 14.7493 16.666Z" fill="currentColor"/>
</svg>
